# xmcd
#
# Track frame offsets:
#	150
#	12236
#	27506
#	38924
#	50164
#	62407
#	71937
#	83038
#	97148
#	113069
#	134322
#	144441
#	155869
#	176799
#
# Disc length: 2566 seconds
#
# Revision: 0
# Processed by: cddbd v1.5PL3 Copyright (c) Steve Scherf et al.
# Submitted via: dBpowerAMP V4.0
#
DISCID=cc0a040e
DTITLE=BJ O'Malley - Good Girls Get The Blues
DYEAR=1900
DGENRE=
TTITLE0=Sycamore St
TTITLE1=Nashville
TTITLE2=good girls
TTITLE3=Gin and Jack
TTITLE4=Low
TTITLE5=One Drink At A Time
TTITLE6=Miss Me
TTITLE7=Just In Case
TTITLE8=Shitfaced
TTITLE9=The Whiiskey Song
TTITLE10=Put Me 1st
TTITLE11=I'm A Little Strange
TTITLE12=Sweet Baby
TTITLE13=A Fine Man
EXTD=
EXTT0=
EXTT1=
EXTT2=
EXTT3=
EXTT4=
EXTT5=
EXTT6=
EXTT7=
EXTT8=
EXTT9=
EXTT10=
EXTT11=
EXTT12=
EXTT13=
PLAYORDER=
